<svg xmlns="http://www.w3.org/2000/svg" viewBox="0 0 100 101.779" width="320" height="320"><g xmlns="http://www.w3.org/2000/svg" fill="#FFF"><path d="m71.954 13.676-3.368-1.453c-1.711-.733-3.721.055-4.455 1.766l-5.011 11.64L18.715 8.23C18.145 3.6 14.18 0 9.398 0 4.224 0 0 4.21 0 9.385c0 5.174 4.21 9.398 9.398 9.398 1.67 0 3.246-.435 4.604-1.209L57.79 36.44l3.68 1.589c1.467.638 3.165.136 4.075-1.114.15-.203.272-.42.367-.652l1.507-3.49.027-.054 6.289-14.6c.733-1.698-.068-3.695-1.78-4.442zm-62.556.802c-.326 0-.638-.027-.95-.095a5.089 5.089 0 0 1-4.13-4.998 5.09 5.09 0 0 1 5.08-5.08c1.521 0 2.88.666 3.803 1.725a5.099 5.099 0 0 1 1.277 3.368 5.09 5.09 0 0 1-5.08 5.08z"/><path d="M67.405 32.786c-.014.04-.028.067-.041.108l-1.453 3.368s0 .014-.014.014l1.508-3.49zM56.132 20.983l-21.377-9.208a1.636 1.636 0 0 1-.856-2.146l2.852-6.614a1.636 1.636 0 0 1 2.146-.856l21.377 9.209a1.636 1.636 0 0 1 .856 2.146l-2.852 6.614a1.636 1.636 0 0 1-2.146.855zM65.53 36.928a3.428 3.428 0 0 1-4.088 1.127l-3.368-1.453a3.064 3.064 0 0 1-.299-.15l3.68 1.59a3.404 3.404 0 0 0 4.075-1.114zM67.676 68.885l-3.382-1.44s-.013 0-.013-.013l3.395 1.453zM79.52 57.599l9.112-21.418a1.625 1.625 0 0 1 2.133-.856l6.614 2.812a1.625 1.625 0 0 1 .855 2.132l-9.113 21.418a1.625 1.625 0 0 1-2.132.855l-6.614-2.81c-.815-.354-1.209-1.318-.856-2.133zM63.154 66.658l.027.027c0-.014-.014-.014-.027-.027.013 0 .013 0 0 0zM63.18 66.671c.042.04.069.082.11.109-.041-.027-.068-.068-.11-.109zM63.031 66.508c.041.055.082.095.123.136a3.394 3.394 0 0 1-.68-3.667l1.44-3.382c.04-.095.095-.19.15-.285l-1.562 3.68a3.449 3.449 0 0 0-.272 1.508c0 .04 0 .068.014.095 0 .041 0 .068.013.109v.013c.014.055.014.123.027.177.014.054.014.109.028.163 0 .027.013.054.027.081.013.055.027.096.04.136a.766.766 0 0 0 .055.163c0 .027.013.041.027.068.014.055.04.109.068.15.027.054.04.095.068.149.013.027.027.068.054.095 0 .014.014.027.014.04.027.042.04.082.068.11.013.04.04.067.067.095.028.04.055.095.096.135.027.027.04.068.067.095 0 .055.028.095.068.136zM63.466 66.943c-.054-.055-.109-.095-.163-.15.04.041.095.095.163.15zM33.112 65.951l-1.467 3.49c.013-.026.027-.067.04-.094l1.427-3.382v-.014zM43.026 81.149l21.459 9.018a1.627 1.627 0 0 1 .869 2.132l-2.784 6.628a1.627 1.627 0 0 1-2.133.87L38.98 90.777a1.627 1.627 0 0 1-.87-2.132l2.785-6.628a1.622 1.622 0 0 1 2.132-.869zM41.22 65.693l-3.681-1.548a3.409 3.409 0 0 0-3.735.76 3.387 3.387 0 0 1 3.749-.774l3.381 1.427c.11.04.204.081.286.135zM34.456 34.782l-3.531-1.467c.04.014.081.027.122.055l3.395 1.412c.014-.014.014-.014.014 0zM19.3 44.75l-8.924 21.5a1.64 1.64 0 0 1-2.132.883l-6.641-2.757a1.64 1.64 0 0 1-.883-2.132l8.923-21.486a1.64 1.64 0 0 1 2.132-.883l6.641 2.757c.842.34 1.236 1.29.883 2.119z"/><path d="M90.56 1.046c-5.174 0-9.397 4.21-9.397 9.385 0 1.887.556 3.64 1.52 5.106L64.064 59.31l-1.561 3.68a3.449 3.449 0 0 0-.272 1.508c0 .027 0 .068.014.095 0 .041 0 .068.013.109v.013c.014.055.014.123.027.177.014.054.014.109.028.163 0 .027.013.054.027.081.013.055.027.096.04.136a.766.766 0 0 0 .055.163c0 .027.013.041.027.068.014.055.04.109.068.15.027.054.04.095.068.149.013.027.027.068.054.095 0 .014.014.027.014.04.027.042.04.082.068.11.013.04.04.067.067.095.028.04.055.095.096.135.027.027.04.068.067.095.041.041.068.082.11.136.026.027.04.055.067.082l.027.027.027.027.014.014c.095.095.19.19.299.271l.163.122c.203.15.42.272.652.367l3.395 1.453.163.068 14.627 6.22a3.393 3.393 0 0 0 4.441-1.792l1.44-3.382c.733-1.711-.082-3.708-1.793-4.441L74.93 60.587 92.34 19.666C96.7 18.85 100 15.02 100 10.43c-.04-5.175-4.251-9.385-9.44-9.385zm3.709 12.861a5.041 5.041 0 0 1-3.708 1.603 5.09 5.09 0 0 1-5.08-5.08c0-.095 0-.203.014-.298a5.08 5.08 0 0 1 5.08-4.78 5.09 5.09 0 0 1 5.079 5.079c0 1.344-.53 2.566-1.385 3.476zM35.325 35.298a3.06 3.06 0 0 0-.855-.516l-3.532-1.467-.04-.013-14.682-6.085a3.387 3.387 0 0 0-4.427 1.834l-1.413 3.395a3.387 3.387 0 0 0 1.834 4.428l11.707 4.862L6.75 83.105C2.852 84.245 0 87.858 0 92.123c0 5.174 4.21 9.398 9.398 9.398 5.175 0 9.399-4.21 9.399-9.398 0-2.2-.76-4.224-2.038-5.827l17.996-43.392c.054-.095.095-.19.136-.286l1.412-3.395a3.44 3.44 0 0 0-.978-3.925zM9.398 97.202a5.09 5.09 0 0 1-5.08-5.08 5.072 5.072 0 0 1 5.08-5.08c2.622.001 4.781 1.998 5.053 4.551.013.177.027.353.027.53a5.09 5.09 0 0 1-5.08 5.08zM90.045 82.982a9.47 9.47 0 0 0-4.686 1.25L41.22 65.693l-3.68-1.548a3.409 3.409 0 0 0-3.735.76 3.27 3.27 0 0 0-.692 1.046l-1.467 3.49-6.18 14.723c-.72 1.725.095 3.721 1.806 4.441l3.382 1.426c1.725.72 3.722-.095 4.441-1.806l4.917-11.694 40.73 17.113c.612 4.59 4.55 8.135 9.304 8.135 5.174 0 9.398-4.21 9.398-9.398 0-5.175-4.21-9.399-9.398-9.399zm0 14.478a5.036 5.036 0 0 1-3.83-1.752 5.092 5.092 0 0 1-1.25-3.327 5.09 5.09 0 0 1 5.84-5.025c2.445.366 4.333 2.485 4.333 5.025 0 2.798-2.282 5.08-5.093 5.08z"/></g></svg>
